<?xml version="1.0" encoding="UTF-8" standalone="no"?>
<!DOCTYPE svg PUBLIC "-//W3C//DTD SVG 1.1//EN"
 "http://www.w3.org/Graphics/SVG/1.1/DTD/svg11.dtd">
<!-- Generated by graphviz version 2.47.0 (20210316.0004)
 -->
<!-- Title: dependencies Pages: 1 -->
<svg width="504pt" height="284pt"
 viewBox="0.00 0.00 504.00 284.00" xmlns="http://www.w3.org/2000/svg" xmlns:xlink="http://www.w3.org/1999/xlink">
<g id="graph0" class="graph" transform="scale(1 1) rotate(0) translate(4 280)">
<title>dependencies</title>
<polygon fill="white" stroke="transparent" points="-4,4 -4,-280 500,-280 500,4 -4,4"/>
<text text-anchor="start" x="227.01" y="-42.4" font-family="Times-12" font-weight="bold" font-size="14.00">Legend</text>
<polygon fill="#ffffb3" stroke="transparent" points="14,-10 14,-30 34,-30 34,-10 14,-10"/>
<text text-anchor="start" x="37.63" y="-15.4" font-family="Times-12" font-size="14.00"> &#160;Declarations</text>
<polygon fill="#8dd3c7" stroke="transparent" points="127,-10 127,-30 147,-30 147,-10 127,-10"/>
<text text-anchor="start" x="150.73" y="-15.4" font-family="Times-12" font-size="14.00"> &#160;Module</text>
<polygon fill="#80b1d3" stroke="transparent" points="213,-10 213,-30 233,-30 233,-10 213,-10"/>
<text text-anchor="start" x="236.78" y="-15.4" font-family="Times-12" font-size="14.00"> &#160;Bootstrap</text>
<polygon fill="#fdb462" stroke="transparent" points="310,-10 310,-30 330,-30 330,-10 310,-10"/>
<text text-anchor="start" x="333.67" y="-15.4" font-family="Times-12" font-size="14.00"> &#160;Providers</text>
<polygon fill="#fb8072" stroke="transparent" points="406,-10 406,-30 426,-30 426,-10 406,-10"/>
<text text-anchor="start" x="429.73" y="-15.4" font-family="Times-12" font-size="14.00"> &#160;Exports</text>
<g id="clust1" class="cluster">
<title>cluster_EmploymentModule</title>
<polygon fill="none" stroke="black" stroke-dasharray="1,5" points="21,-70 21,-268 475,-268 475,-70 21,-70"/>
</g>
<g id="clust3" class="cluster">
<title>cluster_EmploymentModule_imports</title>
<polygon fill="none" stroke="black" points="233,-78 233,-130 467,-130 467,-78 233,-78"/>
</g>
<g id="clust4" class="cluster">
<title>cluster_EmploymentModule_exports</title>
<polygon fill="none" stroke="black" points="209,-208 209,-260 359,-260 359,-208 209,-208"/>
</g>
<g id="clust6" class="cluster">
<title>cluster_EmploymentModule_providers</title>
<polygon fill="none" stroke="black" points="29,-78 29,-130 225,-130 225,-78 29,-78"/>
</g>
<!-- CompanyModule -->
<g id="node1" class="node">
<title>CompanyModule</title>
<polygon fill="#8dd3c7" stroke="black" points="458.99,-122 455.99,-126 434.99,-126 431.99,-122 345.01,-122 345.01,-86 458.99,-86 458.99,-122"/>
<text text-anchor="middle" x="402" y="-99.8" font-family="Times,serif" font-size="14.00">CompanyModule</text>
</g>
<!-- EmploymentModule -->
<g id="node3" class="node">
<title>EmploymentModule</title>
<polygon fill="#8dd3c7" stroke="black" points="349.88,-187 346.88,-191 325.88,-191 322.88,-187 218.12,-187 218.12,-151 349.88,-151 349.88,-187"/>
<text text-anchor="middle" x="284" y="-164.8" font-family="Times,serif" font-size="14.00">EmploymentModule</text>
</g>
<!-- CompanyModule&#45;&gt;EmploymentModule -->
<g id="edge1" class="edge">
<title>CompanyModule&#45;&gt;EmploymentModule</title>
<path fill="none" stroke="black" d="M344.9,-104C339.5,-104 336,-104 336,-104 336,-104 336,-140.89 336,-140.89"/>
<polygon fill="black" stroke="black" points="332.5,-140.89 336,-150.89 339.5,-140.89 332.5,-140.89"/>
</g>
<!-- UserModule -->
<g id="node2" class="node">
<title>UserModule</title>
<polygon fill="#8dd3c7" stroke="black" points="326.98,-122 323.98,-126 302.98,-126 299.98,-122 241.02,-122 241.02,-86 326.98,-86 326.98,-122"/>
<text text-anchor="middle" x="284" y="-99.8" font-family="Times,serif" font-size="14.00">UserModule</text>
</g>
<!-- UserModule&#45;&gt;EmploymentModule -->
<g id="edge2" class="edge">
<title>UserModule&#45;&gt;EmploymentModule</title>
<path fill="none" stroke="black" d="M284,-122.11C284,-122.11 284,-140.99 284,-140.99"/>
<polygon fill="black" stroke="black" points="280.5,-140.99 284,-150.99 287.5,-140.99 280.5,-140.99"/>
</g>
<!-- EmploymentService  -->
<g id="node4" class="node">
<title>EmploymentService </title>
<polygon fill="#fb8072" stroke="black" points="350.81,-252 217.19,-252 217.19,-216 350.81,-216 350.81,-252"/>
<text text-anchor="middle" x="284" y="-229.8" font-family="Times,serif" font-size="14.00">EmploymentService </text>
</g>
<!-- EmploymentModule&#45;&gt;EmploymentService  -->
<g id="edge3" class="edge">
<title>EmploymentModule&#45;&gt;EmploymentService </title>
<path fill="none" stroke="black" stroke-dasharray="5,2" d="M284,-187.11C284,-187.11 284,-205.99 284,-205.99"/>
<polygon fill="black" stroke="black" points="280.5,-205.99 284,-215.99 287.5,-205.99 280.5,-205.99"/>
</g>
<!-- EmploymentService -->
<g id="node5" class="node">
<title>EmploymentService</title>
<ellipse fill="#fdb462" stroke="black" cx="127" cy="-104" rx="89.77" ry="18"/>
<text text-anchor="middle" x="127" y="-99.8" font-family="Times,serif" font-size="14.00">EmploymentService</text>
</g>
<!-- EmploymentService&#45;&gt;EmploymentModule -->
<g id="edge4" class="edge">
<title>EmploymentService&#45;&gt;EmploymentModule</title>
<path fill="none" stroke="black" d="M216.96,-104C224.63,-104 229.54,-104 229.54,-104 229.54,-104 229.54,-140.89 229.54,-140.89"/>
<polygon fill="black" stroke="black" points="226.04,-140.89 229.54,-150.89 233.04,-140.89 226.04,-140.89"/>
</g>
</g>
</svg>
