<?xml version="1.0" encoding="UTF-8" standalone="no"?>
<!DOCTYPE svg PUBLIC "-//W3C//DTD SVG 1.1//EN"
 "http://www.w3.org/Graphics/SVG/1.1/DTD/svg11.dtd">
<!-- Generated by graphviz version 2.47.0 (20210316.0004)
 -->
<!-- Title: dependencies Pages: 1 -->
<svg width="1144pt" height="295pt"
 viewBox="0.00 0.00 1144.00 295.00" xmlns="http://www.w3.org/2000/svg" xmlns:xlink="http://www.w3.org/1999/xlink">
<g id="graph0" class="graph" transform="scale(1 1) rotate(0) translate(4 291)">
<title>dependencies</title>
<polygon fill="white" stroke="transparent" points="-4,4 -4,-291 1140,-291 1140,4 -4,4"/>
<text text-anchor="start" x="547.01" y="-42.4" font-family="Times-12" font-weight="bold" font-size="14.00">Legend</text>
<polygon fill="#ffffb3" stroke="transparent" points="334,-10 334,-30 354,-30 354,-10 334,-10"/>
<text text-anchor="start" x="357.63" y="-15.4" font-family="Times-12" font-size="14.00"> &#160;Declarations</text>
<polygon fill="#8dd3c7" stroke="transparent" points="447,-10 447,-30 467,-30 467,-10 447,-10"/>
<text text-anchor="start" x="470.73" y="-15.4" font-family="Times-12" font-size="14.00"> &#160;Module</text>
<polygon fill="#80b1d3" stroke="transparent" points="533,-10 533,-30 553,-30 553,-10 533,-10"/>
<text text-anchor="start" x="556.78" y="-15.4" font-family="Times-12" font-size="14.00"> &#160;Bootstrap</text>
<polygon fill="#fdb462" stroke="transparent" points="630,-10 630,-30 650,-30 650,-10 630,-10"/>
<text text-anchor="start" x="653.67" y="-15.4" font-family="Times-12" font-size="14.00"> &#160;Providers</text>
<polygon fill="#fb8072" stroke="transparent" points="726,-10 726,-30 746,-30 746,-10 726,-10"/>
<text text-anchor="start" x="749.73" y="-15.4" font-family="Times-12" font-size="14.00"> &#160;Exports</text>
<g id="clust1" class="cluster">
<title>cluster_AppModule</title>
<polygon fill="none" stroke="black" stroke-dasharray="1,5" points="8,-70 8,-271 524,-271 524,-70 8,-70"/>
</g>
<g id="clust3" class="cluster">
<title>cluster_AppModule_imports</title>
<polygon fill="none" stroke="black" points="154,-78 154,-195 516,-195 516,-78 154,-78"/>
</g>
<g id="clust6" class="cluster">
<title>cluster_AppModule_providers</title>
<polygon fill="none" stroke="black" points="16,-143 16,-195 146,-195 146,-143 16,-143"/>
</g>
<g id="clust7" class="cluster">
<title>cluster_CompanyModule</title>
<polygon fill="none" stroke="black" stroke-dasharray="1,5" points="532,-135 532,-203 860,-203 860,-135 532,-135"/>
</g>
<g id="clust10" class="cluster">
<title>cluster_CompanyModule_exports</title>
<polygon fill="none" stroke="black" points="720,-143 720,-195 852,-195 852,-143 720,-143"/>
</g>
<g id="clust12" class="cluster">
<title>cluster_CompanyModule_providers</title>
<polygon fill="none" stroke="black" points="540,-143 540,-195 712,-195 712,-143 540,-143"/>
</g>
<g id="clust19" class="cluster">
<title>cluster_EmploymentModule</title>
<polygon fill="none" stroke="black" stroke-dasharray="1,5" points="532,-211 532,-279 902,-279 902,-211 532,-211"/>
</g>
<g id="clust22" class="cluster">
<title>cluster_EmploymentModule_exports</title>
<polygon fill="none" stroke="black" points="744,-219 744,-271 894,-271 894,-219 744,-219"/>
</g>
<g id="clust24" class="cluster">
<title>cluster_EmploymentModule_providers</title>
<polygon fill="none" stroke="black" points="540,-219 540,-271 736,-271 736,-219 540,-219"/>
</g>
<g id="clust25" class="cluster">
<title>cluster_UserModule</title>
<polygon fill="none" stroke="black" stroke-dasharray="1,5" points="868,-135 868,-203 1128,-203 1128,-135 868,-135"/>
</g>
<g id="clust28" class="cluster">
<title>cluster_UserModule_exports</title>
<polygon fill="none" stroke="black" points="1016,-143 1016,-195 1120,-195 1120,-143 1016,-143"/>
</g>
<g id="clust30" class="cluster">
<title>cluster_UserModule_providers</title>
<polygon fill="none" stroke="black" points="876,-143 876,-195 1008,-195 1008,-143 876,-143"/>
</g>
<!-- CompanyModule -->
<g id="node1" class="node">
<title>CompanyModule</title>
<polygon fill="#8dd3c7" stroke="black" points="403.99,-122 400.99,-126 379.99,-126 376.99,-122 290.01,-122 290.01,-86 403.99,-86 403.99,-122"/>
<text text-anchor="middle" x="347" y="-99.8" font-family="Times,serif" font-size="14.00">CompanyModule</text>
</g>
<!-- EmploymentModule -->
<g id="node3" class="node">
<title>EmploymentModule</title>
<polygon fill="#8dd3c7" stroke="black" points="507.88,-187 504.88,-191 483.88,-191 480.88,-187 376.12,-187 376.12,-151 507.88,-151 507.88,-187"/>
<text text-anchor="middle" x="442" y="-164.8" font-family="Times,serif" font-size="14.00">EmploymentModule</text>
</g>
<!-- CompanyModule&#45;&gt;EmploymentModule -->
<g id="edge8" class="edge">
<title>CompanyModule&#45;&gt;EmploymentModule</title>
<path fill="none" stroke="black" d="M383.04,-122.11C383.04,-122.11 383.04,-140.99 383.04,-140.99"/>
<polygon fill="black" stroke="black" points="379.54,-140.99 383.04,-150.99 386.54,-140.99 379.54,-140.99"/>
</g>
<!-- AppModule -->
<g id="node5" class="node">
<title>AppModule</title>
<polygon fill="#8dd3c7" stroke="black" points="378.66,-263 375.66,-267 354.66,-267 351.66,-263 295.34,-263 295.34,-227 378.66,-227 378.66,-263"/>
<text text-anchor="middle" x="337" y="-240.8" font-family="Times,serif" font-size="14.00">AppModule</text>
</g>
<!-- CompanyModule&#45;&gt;AppModule -->
<g id="edge1" class="edge">
<title>CompanyModule&#45;&gt;AppModule</title>
<path fill="none" stroke="black" d="M327.53,-122.14C327.53,-122.14 327.53,-216.93 327.53,-216.93"/>
<polygon fill="black" stroke="black" points="324.03,-216.92 327.53,-226.93 331.03,-216.93 324.03,-216.92"/>
</g>
<!-- CompanyService  -->
<g id="node7" class="node">
<title>CompanyService </title>
<polygon fill="#fb8072" stroke="black" points="843.92,-187 728.08,-187 728.08,-151 843.92,-151 843.92,-187"/>
<text text-anchor="middle" x="786" y="-164.8" font-family="Times,serif" font-size="14.00">CompanyService </text>
</g>
<!-- CompanyModule&#45;&gt;CompanyService  -->
<g id="edge6" class="edge">
<title>CompanyModule&#45;&gt;CompanyService </title>
<path fill="none" stroke="black" stroke-dasharray="5,2" d="M390.03,-122.06C390.03,-126.49 390.03,-130 390.03,-130 390.03,-130 786,-130 786,-130 786,-130 786,-140.87 786,-140.87"/>
<polygon fill="black" stroke="black" points="782.5,-140.87 786,-150.87 789.5,-140.87 782.5,-140.87"/>
</g>
<!-- DatabaseModule -->
<g id="node2" class="node">
<title>DatabaseModule</title>
<polygon fill="#8dd3c7" stroke="black" points="272.35,-122 269.35,-126 248.35,-126 245.35,-122 161.65,-122 161.65,-86 272.35,-86 272.35,-122"/>
<text text-anchor="middle" x="217" y="-99.8" font-family="Times,serif" font-size="14.00">DatabaseModule</text>
</g>
<!-- DatabaseModule&#45;&gt;AppModule -->
<g id="edge2" class="edge">
<title>DatabaseModule&#45;&gt;AppModule</title>
<path fill="none" stroke="black" d="M217,-122.14C217,-160.23 217,-245 217,-245 217,-245 285.03,-245 285.03,-245"/>
<polygon fill="black" stroke="black" points="285.03,-248.5 295.03,-245 285.03,-241.5 285.03,-248.5"/>
</g>
<!-- EmploymentModule&#45;&gt;AppModule -->
<g id="edge3" class="edge">
<title>EmploymentModule&#45;&gt;AppModule</title>
<path fill="none" stroke="black" d="M376.11,-175C366.56,-175 359.88,-175 359.88,-175 359.88,-175 359.88,-216.97 359.88,-216.97"/>
<polygon fill="black" stroke="black" points="356.38,-216.97 359.88,-226.97 363.38,-216.97 356.38,-216.97"/>
</g>
<!-- EmploymentService  -->
<g id="node9" class="node">
<title>EmploymentService </title>
<polygon fill="#fb8072" stroke="black" points="885.81,-263 752.19,-263 752.19,-227 885.81,-227 885.81,-263"/>
<text text-anchor="middle" x="819" y="-240.8" font-family="Times,serif" font-size="14.00">EmploymentService </text>
</g>
<!-- EmploymentModule&#45;&gt;EmploymentService  -->
<g id="edge10" class="edge">
<title>EmploymentModule&#45;&gt;EmploymentService </title>
<path fill="none" stroke="black" stroke-dasharray="5,2" d="M421.87,-187.11C421.87,-196.9 421.87,-207 421.87,-207 421.87,-207 798.03,-207 798.03,-207 798.03,-207 798.03,-216.89 798.03,-216.89"/>
<polygon fill="black" stroke="black" points="794.53,-216.89 798.03,-226.89 801.53,-216.89 794.53,-216.89"/>
</g>
<!-- UserModule -->
<g id="node4" class="node">
<title>UserModule</title>
<polygon fill="#8dd3c7" stroke="black" points="507.98,-122 504.98,-126 483.98,-126 480.98,-122 422.02,-122 422.02,-86 507.98,-86 507.98,-122"/>
<text text-anchor="middle" x="465" y="-99.8" font-family="Times,serif" font-size="14.00">UserModule</text>
</g>
<!-- UserModule&#45;&gt;EmploymentModule -->
<g id="edge9" class="edge">
<title>UserModule&#45;&gt;EmploymentModule</title>
<path fill="none" stroke="black" d="M479.3,-122.11C479.3,-122.11 479.3,-140.99 479.3,-140.99"/>
<polygon fill="black" stroke="black" points="475.8,-140.99 479.3,-150.99 482.8,-140.99 475.8,-140.99"/>
</g>
<!-- UserModule&#45;&gt;AppModule -->
<g id="edge4" class="edge">
<title>UserModule&#45;&gt;AppModule</title>
<path fill="none" stroke="black" d="M450.65,-122.13C450.65,-132.71 450.65,-144 450.65,-144 450.65,-144 343.7,-144 343.7,-144 343.7,-144 343.7,-216.94 343.7,-216.94"/>
<polygon fill="black" stroke="black" points="340.2,-216.94 343.7,-226.94 347.2,-216.94 340.2,-216.94"/>
</g>
<!-- UserService  -->
<g id="node11" class="node">
<title>UserService </title>
<polygon fill="#fb8072" stroke="black" points="1111.9,-187 1024.1,-187 1024.1,-151 1111.9,-151 1111.9,-187"/>
<text text-anchor="middle" x="1068" y="-164.8" font-family="Times,serif" font-size="14.00">UserService </text>
</g>
<!-- UserModule&#45;&gt;UserService  -->
<g id="edge12" class="edge">
<title>UserModule&#45;&gt;UserService </title>
<path fill="none" stroke="black" stroke-dasharray="5,2" d="M508.37,-98C646.63,-98 1068,-98 1068,-98 1068,-98 1068,-140.72 1068,-140.72"/>
<polygon fill="black" stroke="black" points="1064.5,-140.72 1068,-150.72 1071.5,-140.72 1064.5,-140.72"/>
</g>
<!-- AppService -->
<g id="node6" class="node">
<title>AppService</title>
<ellipse fill="#fdb462" stroke="black" cx="81" cy="-169" rx="56.74" ry="18"/>
<text text-anchor="middle" x="81" y="-164.8" font-family="Times,serif" font-size="14.00">AppService</text>
</g>
<!-- AppService&#45;&gt;AppModule -->
<g id="edge5" class="edge">
<title>AppService&#45;&gt;AppModule</title>
<path fill="none" stroke="black" d="M134.43,-163C202.47,-163 311.35,-163 311.35,-163 311.35,-163 311.35,-216.8 311.35,-216.8"/>
<polygon fill="black" stroke="black" points="307.85,-216.8 311.35,-226.8 314.85,-216.8 307.85,-216.8"/>
</g>
<!-- CompanyService -->
<g id="node8" class="node">
<title>CompanyService</title>
<ellipse fill="#fdb462" stroke="black" cx="626" cy="-169" rx="77.59" ry="18"/>
<text text-anchor="middle" x="626" y="-164.8" font-family="Times,serif" font-size="14.00">CompanyService</text>
</g>
<!-- CompanyService&#45;&gt;CompanyModule -->
<g id="edge7" class="edge">
<title>CompanyService&#45;&gt;CompanyModule</title>
<path fill="none" stroke="black" d="M626,-150.76C626,-143.57 626,-137 626,-137 626,-137 397.01,-137 397.01,-137 397.01,-137 397.01,-132.04 397.01,-132.04"/>
<polygon fill="black" stroke="black" points="400.51,-132.04 397.01,-122.04 393.51,-132.04 400.51,-132.04"/>
</g>
<!-- EmploymentService -->
<g id="node10" class="node">
<title>EmploymentService</title>
<ellipse fill="#fdb462" stroke="black" cx="638" cy="-245" rx="89.77" ry="18"/>
<text text-anchor="middle" x="638" y="-240.8" font-family="Times,serif" font-size="14.00">EmploymentService</text>
</g>
<!-- EmploymentService&#45;&gt;EmploymentModule -->
<g id="edge11" class="edge">
<title>EmploymentService&#45;&gt;EmploymentModule</title>
<path fill="none" stroke="black" d="M547.9,-245C505.84,-245 464.9,-245 464.9,-245 464.9,-245 464.9,-197.01 464.9,-197.01"/>
<polygon fill="black" stroke="black" points="468.4,-197.01 464.9,-187.01 461.4,-197.01 468.4,-197.01"/>
</g>
<!-- UserService -->
<g id="node12" class="node">
<title>UserService</title>
<ellipse fill="#fdb462" stroke="black" cx="942" cy="-169" rx="58.44" ry="18"/>
<text text-anchor="middle" x="942" y="-164.8" font-family="Times,serif" font-size="14.00">UserService</text>
</g>
<!-- UserService&#45;&gt;UserModule -->
<g id="edge13" class="edge">
<title>UserService&#45;&gt;UserModule</title>
<path fill="none" stroke="black" d="M942,-150.98C942,-133.63 942,-110 942,-110 942,-110 518.17,-110 518.17,-110"/>
<polygon fill="black" stroke="black" points="518.17,-106.5 508.17,-110 518.17,-113.5 518.17,-106.5"/>
</g>
</g>
</svg>
